<svg xmlns="http://www.w3.org/2000/svg" viewBox="0 0 40 44">
  <defs>
    <!-- Gold gradient -->
    <linearGradient id="goldFill" x1="0" y1="0" x2="1" y2="1">
      <stop offset="0%"  stop-color="#f9e79f"/>
      <stop offset="40%" stop-color="#f1c40f"/>
      <stop offset="70%" stop-color="#d4ac0d"/>
      <stop offset="100%" stop-color="#7d6608"/>
    </linearGradient>

    <!-- Embossed stroke -->
    <linearGradient id="goldStroke" x1="0" y1="0" x2="0" y2="1">
      <stop offset="0%" stop-color="#fdf2c0"/>
      <stop offset="100%" stop-color="#7d6608"/>
    </linearGradient>

    <!-- Radiant halo -->
    <filter id="winnerGlow" x="-60%" y="-60%" width="220%" height="220%">
      <feGaussianBlur stdDeviation="4" result="blur"/>
      <feColorMatrix type="matrix"
        values="0 0 0 0 1
                0 0 0 0 0.9
                0 0 0 0 0.4
                0 0 0 0.9 0" result="halo"/>
      <feMerge>
        <feMergeNode in="halo"/>
        <feMergeNode in="SourceGraphic"/>
      </feMerge>
    </filter>

    <!-- Subtle parchment grain -->
    <filter id="grain">
      <feTurbulence type="fractalNoise" baseFrequency="0.8" numOctaves="3" result="noise"/>
      <feColorMatrix type="matrix"
        values="0 0 0 0 0.8
                0 0 0 0 0.7
                0 0 0 0 0.4
                0 0 0 0.35 0" result="tint"/>
      <feBlend in="SourceGraphic" in2="tint" mode="multiply"/>
    </filter>
  </defs>

  <!-- Halo behind -->
  <circle cx="20" cy="22" r="18" fill="rgba(255, 223, 128, 0.35)" filter="url(#winnerGlow)"/>

  <!-- Gold meeple -->
  <g filter="url(#winnerGlow)">
    <path d="M20 3
             C17 3 15 5 14 8
             L10 14
             L4 16
             C2 17 2 20 4 22
             L9 26
             L7 34
             C6 37 8 40 11 40
             L29 40
             C32 40 34 37 33 34
             L31 26
             L36 22
             C38 20 38 17 36 16
             L30 14
             L26 8
             C25 5 23 3 20 3Z"
          fill="url(#goldFill)"
          stroke="url(#goldStroke)"
          stroke-width="2"
          filter="url(#grain)"/>
    <!-- Engraved star/crown -->
    <path d="M20 15
             L21.5 18
             L25 18.3
             L22 20.3
             L23 23.5
             L20 21.8
             L17 23.5
             L18 20.3
             L15 18.3
             L18.5 18Z"
          fill="rgba(255,255,255,0.9)"
          stroke="rgba(125,102,8,0.9)"
          stroke-width="0.7"/>
  </g>
</svg>
